<?xml version="1.0" encoding="UTF-8" standalone="no"?>
<!-- Created with Inkscape (http://www.inkscape.org/) -->

<svg
   xmlns:dc="http://purl.org/dc/elements/1.1/"
   xmlns:cc="http://creativecommons.org/ns#"
   xmlns:rdf="http://www.w3.org/1999/02/22-rdf-syntax-ns#"
   xmlns:svg="http://www.w3.org/2000/svg"
   xmlns="http://www.w3.org/2000/svg"
   xmlns:sodipodi="http://sodipodi.sourceforge.net/DTD/sodipodi-0.dtd"
   xmlns:inkscape="http://www.inkscape.org/namespaces/inkscape"
   sodipodi:docname="play.svg"
   inkscape:version="0.48.4 r9939"
   version="1.1"
   id="svg2"
   height="1052.3622047"
   width="744.09448819">
  <defs
     id="defs4">
    <filter
       id="filter4000"
       x="-0.25"
       width="1.5"
       y="-0.25"
       height="1.5"
       inkscape:menu="Non realistic 3D shaders"
       inkscape:menu-tooltip="Brushed aluminium shader"
       inkscape:label="Aluminium"
       color-interpolation-filters="sRGB">
      <feGaussianBlur
         id="feGaussianBlur4002"
         result="result8"
         stdDeviation="7" />
      <feComposite
         in2="SourceGraphic"
         id="feComposite4004"
         in="result8"
         operator="xor"
         result="result6" />
      <feDisplacementMap
         in2="result6"
         id="feDisplacementMap4006"
         result="result4"
         scale="75"
         yChannelSelector="A"
         xChannelSelector="A"
         in="result6" />
      <feComposite
         in2="SourceGraphic"
         id="feComposite4008"
         k1="1"
         in="result4"
         operator="arithmetic"
         result="result2" />
      <feBlend
         blend="normal"
         in2="result2"
         id="feBlend4339" />
    </filter>
    <filter
       id="filter4355"
       inkscape:label="фильтр2" />
    <filter
       inkscape:collect="always"
       id="filter4521"
       x="-0.25171205"
       width="1.5034241"
       y="-0.40426481"
       height="1.8085296">
      <feGaussianBlur
         inkscape:collect="always"
         stdDeviation="22.460302"
         id="feGaussianBlur4523" />
    </filter>
    <filter
       inkscape:collect="always"
       id="filter4561"
       x="-0.079375724"
       width="1.1587514"
       y="-0.39017081"
       height="1.7803416">
      <feGaussianBlur
         inkscape:collect="always"
         stdDeviation="32.978724"
         id="feGaussianBlur4563" />
    </filter>
  </defs>
  <sodipodi:namedview
     id="base"
     pagecolor="#ffffff"
     bordercolor="#666666"
     borderopacity="1.0"
     inkscape:pageopacity="0.0"
     inkscape:pageshadow="2"
     inkscape:zoom="0.35"
     inkscape:cx="-2102.8637"
     inkscape:cy="1183.5226"
     inkscape:document-units="px"
     inkscape:current-layer="layer1"
     showgrid="false"
     showguides="true"
     inkscape:guide-bbox="true"
     inkscape:window-width="1366"
     inkscape:window-height="746"
     inkscape:window-x="0"
     inkscape:window-y="0"
     inkscape:window-maximized="1" />
  <metadata
     id="metadata7">
    <rdf:RDF>
      <cc:Work
         rdf:about="">
        <dc:format>image/svg+xml</dc:format>
        <dc:type
           rdf:resource="http://purl.org/dc/dcmitype/StillImage" />
        <dc:title />
      </cc:Work>
    </rdf:RDF>
  </metadata>
  <g
     inkscape:label="Layer 1"
     inkscape:groupmode="layer"
     id="layer1">
    <rect
       style="fill:#303f48;fill-opacity:1;stroke:#36556b;stroke-width:15;stroke-miterlimit:4;stroke-opacity:1;stroke-dasharray:none"
       id="rect3796"
       width="1022.5588"
       height="561.44287"
       x="-2773.0654"
       y="-369.86438"
       ry="135.13025" />
    <path
       sodipodi:type="arc"
       style="opacity:0.36259544;fill:#ffffff;fill-opacity:1;stroke:none;filter:url(#filter4561)"
       id="path4527"
       sodipodi:cx="-2261.4287"
       sodipodi:cy="-94.780693"
       sodipodi:rx="498.57144"
       sodipodi:ry="101.42857"
       d="m -1762.8573,-94.780693 a 498.57144,101.42857 0 1 1 -997.1429,0 498.57144,101.42857 0 1 1 997.1429,0 z"
       transform="matrix(0.87636134,0,0,1,-196.74287,168.57143)" />
    <path
       style="fill:#086fae;fill-opacity:1;stroke:#003f6e;stroke-width:7;stroke-linecap:butt;stroke-linejoin:miter;stroke-miterlimit:4;stroke-opacity:1;stroke-dasharray:none"
       d="m -2640.1505,-327.6682 c -72.2299,44.921 -85.4176,411.241878 -32.6934,462.95608 52.7242,51.7142 369.7422,-81.444122 369.7421,-193.572922 -1e-4,-112.128798 -264.8188,-314.304148 -337.0487,-269.383158 z"
       id="path2985"
       inkscape:connector-curvature="0"
       sodipodi:nodetypes="zzzz" />
    <path
       style="fill:#273e4e;fill-opacity:1;stroke:#dae4e4;stroke-width:6;stroke-linecap:butt;stroke-linejoin:miter;stroke-miterlimit:4;stroke-opacity:1;stroke-dasharray:none"
       d="m -2235.2927,-213.8789 63.6353,-20.83505 -59.8552,322.870658 -71.578,22.862552 z"
       id="path3798"
       inkscape:connector-curvature="0"
       sodipodi:nodetypes="ccccc" />
    <path
       style="fill:#273e4e;fill-opacity:1;stroke:#dae4e4;stroke-width:6;stroke-linecap:butt;stroke-linejoin:miter;stroke-miterlimit:4;stroke-opacity:1;stroke-dasharray:none"
       d="m -2049.0594,-239.88128 -64.375,21.8125 -70.4687,322.53125 71.5625,-22.875002 9.1875,-49.46875 41.8437,-33.7812502 14.7188,89.8437502 58.5625,-1.9375 -61.0313,-326.124998 z m -28.9375,136.21875 10.0313,61.218748 -24.7813,18.375 14.75,-79.593748 z"
       id="path3872"
       inkscape:connector-curvature="0" />
    <path
       style="fill:#273e4e;fill-opacity:1;stroke:#dae4e4;stroke-width:6;stroke-linecap:butt;stroke-linejoin:miter;stroke-miterlimit:4;stroke-opacity:1;stroke-dasharray:none"
       d="m -1990.7945,-242.18241 54.2812,292.624998 -11.6875,55.968752 71.5625,-22.875002 59.875,-322.874998 -63.6562,20.84375 -23.0625,110.5 -23.6563,-113.375 -63.6562,-20.8125 z"
       id="path3798-5"
       inkscape:connector-curvature="0" />
    <path
       sodipodi:type="arc"
       style="opacity:0.77338131;fill:#dfe4e7;fill-opacity:1;stroke:none;filter:url(#filter4521)"
       id="path4387"
       sodipodi:cx="270.72089"
       sodipodi:cy="571.52954"
       sodipodi:rx="107.07617"
       sodipodi:ry="66.670067"
       d="m 377.79706,571.52954 a 107.07617,66.670067 0 1 1 -214.15235,0 107.07617,66.670067 0 1 1 214.15235,0 z"
       transform="matrix(0.93875064,0,0,1.0920981,-2741.7544,-696.365)" />
    <path
       style="fill:#c7e7ff;fill-opacity:1;stroke:#273e4e;stroke-width:7;stroke-linecap:butt;stroke-linejoin:miter;stroke-miterlimit:4;stroke-opacity:1;stroke-dasharray:none;filter:url(#filter4355)"
       d="m -2613.4146,-209.2668 -17.6875,271.187498 78.3125,5.96875 -9.75,-56.15625 c 0,0 120.1882,-9.5408002 119.9062,-101.1875 -0.282,-91.646698 -139.375,-119.781248 -139.375,-119.781248 l -31.4062,-0.0312 z m 43.1875,64.40625 c 0,0 92.3956,29.82556 70.1875,67.781248 -22.2081,37.9557 -73.375,8.78125 -73.375,8.78125 l 3.1875,-76.562498 z"
       id="path3755"
       inkscape:connector-curvature="0" />
    <path
       sodipodi:type="arc"
       style="fill:#1c2d38;fill-opacity:1;stroke:none"
       id="path4525"
       sodipodi:cx="-1938.4828"
       sodipodi:cy="-308.31332"
       sodipodi:rx="7.0710678"
       sodipodi:ry="7.0710678"
       d="m -1931.4117,-308.31332 a 7.0710678,7.0710678 0 1 1 -14.1422,0 7.0710678,7.0710678 0 1 1 14.1422,0 z"
       transform="matrix(5.2151567,0,0,5.2151567,8272.7679,1722.8224)" />
  </g>
</svg>
