<?xml version="1.0" encoding="UTF-8" standalone="no"?>
<!-- Created with Inkscape (http://www.inkscape.org/) -->

<svg
   xmlns:dc="http://purl.org/dc/elements/1.1/"
   xmlns:cc="http://creativecommons.org/ns#"
   xmlns:rdf="http://www.w3.org/1999/02/22-rdf-syntax-ns#"
   xmlns:svg="http://www.w3.org/2000/svg"
   xmlns="http://www.w3.org/2000/svg"
   xmlns:sodipodi="http://sodipodi.sourceforge.net/DTD/sodipodi-0.dtd"
   xmlns:inkscape="http://www.inkscape.org/namespaces/inkscape"
   width="744.09448819"
   height="1052.3622047"
   id="svg2"
   version="1.1"
   inkscape:version="0.48.4 r9939"
   sodipodi:docname="Новый документ 1">
  <defs
     id="defs4" />
  <sodipodi:namedview
     id="base"
     pagecolor="#ffffff"
     bordercolor="#666666"
     borderopacity="1.0"
     inkscape:pageopacity="0.0"
     inkscape:pageshadow="2"
     inkscape:zoom="0.24748737"
     inkscape:cx="238.01675"
     inkscape:cy="717.2438"
     inkscape:document-units="px"
     inkscape:current-layer="layer1"
     showgrid="false"
     showguides="true"
     inkscape:guide-bbox="true"
     inkscape:window-width="1440"
     inkscape:window-height="876"
     inkscape:window-x="0"
     inkscape:window-y="24"
     inkscape:window-maximized="1" />
  <metadata
     id="metadata7">
    <rdf:RDF>
      <cc:Work
         rdf:about="">
        <dc:format>image/svg+xml</dc:format>
        <dc:type
           rdf:resource="http://purl.org/dc/dcmitype/StillImage" />
        <dc:title></dc:title>
      </cc:Work>
    </rdf:RDF>
  </metadata>
  <g
     inkscape:label="Layer 1"
     inkscape:groupmode="layer"
     id="layer1">
    <rect
       style="fill:#f1f2f2;fill-opacity:1;stroke:#007ad7;stroke-width:3;stroke-miterlimit:4;stroke-opacity:1;stroke-dasharray:none"
       id="rect3796"
       width="2864.7927"
       height="1785.9497"
       x="-1060.6602"
       y="-563.88184" />
    <path
       style="fill:#c7e7ff;fill-opacity:1;stroke:#007ad7;stroke-width:3;stroke-linecap:butt;stroke-linejoin:miter;stroke-miterlimit:4;stroke-opacity:1;stroke-dasharray:none"
       d="m 232.72337,209.73296 c -72.22987,44.921 -85.41761,411.24188 -32.69339,462.95608 52.72421,51.7142 369.74215,-81.44412 369.7421,-193.57292 -6e-5,-112.1288 -264.81884,-314.30415 -337.04871,-269.38316 z"
       id="path2985"
       inkscape:connector-curvature="0"
       sodipodi:nodetypes="zzzz" />
    <path
       style="fill:#007ad7;fill-opacity:1;stroke:#000000;stroke-width:3.34982991;stroke-linecap:butt;stroke-linejoin:miter;stroke-miterlimit:4;stroke-opacity:1;stroke-dasharray:none"
       d="m 230.35131,602.16845 78.2955,5.9701 -9.7341,-56.14308 c 0,0 120.18535,-9.54208 119.90337,-101.18878 -0.28199,-91.6467 -139.36727,-119.79032 -139.36727,-119.79032 l -31.41394,-0.0394 z"
       id="path3755"
       inkscape:connector-curvature="0"
       sodipodi:nodetypes="ccczccc" />
    <path
       style="fill:#c7e7ff;fill-opacity:1;stroke:#000000;stroke-width:3.34982991;stroke-linecap:butt;stroke-linejoin:miter;stroke-miterlimit:4;stroke-opacity:1;stroke-dasharray:none"
       d="m 291.21984,395.3836 -3.19031,76.56755 c 0,0 51.16911,29.18233 73.37723,-8.77337 22.20812,-37.95569 -70.18692,-67.79418 -70.18692,-67.79418 z"
       id="path3784"
       inkscape:connector-curvature="0"
       sodipodi:nodetypes="cczc" />
    <path
       style="fill:#007ad7;fill-opacity:1;stroke:#000000;stroke-width:3;stroke-linecap:butt;stroke-linejoin:miter;stroke-miterlimit:4;stroke-opacity:1;stroke-dasharray:none"
       d="m 626.19462,310.91022 63.63534,-20.83505 -59.85524,322.87066 -71.57797,22.86255 z"
       id="path3798"
       inkscape:connector-curvature="0"
       sodipodi:nodetypes="ccccc" />
    <path
       style="fill:#007ad7;fill-opacity:1;stroke:#000000;stroke-width:1px;stroke-linecap:butt;stroke-linejoin:miter;stroke-opacity:1"
       d="m 719.83266,449.10678 c -3.74491,10.5067 -10.26171,16.993 2.80023,27.35461 13.06194,10.36161 31.15155,-12.80442 51.70595,-12.00799 20.5544,0.79643 40.07435,15.69327 42.59973,32.86586 -2.14285,10.41225 -11.47934,21.36549 -11.47934,21.36549 -30.80965,11.11168 -61.18231,5.32067 -77.15411,27.22951 -15.9718,21.90885 -33.15765,91.12074 21.76032,91.05114 54.91797,-0.0696 35.65282,-16.15313 64.2698,-25.63633 1.10897,18.42377 -5.26659,16.07609 10.30457,26.74801 l 29.74874,0.29587 c -0.18867,-53.57666 0.78339,-91.14287 4.24111,-133.51345 -4.54569,-26.26397 -15.65736,-42.42641 -26.26396,-51.51778 -19.1929,-16.16244 -24.64105,-23.80421 -55.95578,-27.84482 -38.3858,0.50508 -52.83235,13.10317 -56.57726,23.60988 z"
       id="path3805"
       inkscape:connector-curvature="0"
       sodipodi:nodetypes="zzzcczzccccccz" />
  </g>
</svg>
